<svg width="1800" height="600" viewBox="0 0 1800 600" fill="none" xmlns="http://www.w3.org/2000/svg">
<rect x="7.5" y="7.5" width="1785" height="585" rx="67.5" fill="black"/>
<rect x="7.5" y="7.5" width="1785" height="585" rx="67.5" stroke="#A6A6A6" stroke-width="15"/>
<path d="M566.702 371.016C555.222 371.016 545.883 361.67 545.883 350.19C545.883 338.709 555.222 329.37 566.702 329.37C578.183 329.37 587.521 338.709 587.521 350.19C587.521 361.67 578.183 371.016 566.702 371.016ZM336.575 371.016C325.094 371.016 315.756 361.67 315.756 350.19C315.756 338.709 325.094 329.37 336.575 329.37C348.056 329.37 357.395 338.709 357.395 350.19C357.395 361.67 348.056 371.016 336.575 371.016ZM574.169 245.6L615.78 173.533C618.166 169.391 616.747 164.1 612.611 161.708C608.476 159.323 603.178 160.742 600.786 164.877L558.654 237.856C526.435 223.152 490.25 214.962 451.638 214.962C413.027 214.962 376.842 223.152 344.623 237.856L302.491 164.877C300.099 160.742 294.802 159.323 290.666 161.708C286.531 164.1 285.105 169.391 287.497 173.533L329.108 245.6C257.657 284.461 208.788 356.798 201.639 442.258H701.639C694.483 356.798 645.614 284.461 574.169 245.6Z" fill="#3DDB85"/>
<path d="M796.564 228.536C792.532 228.536 788.852 227.896 785.524 226.616C782.26 225.272 779.476 223.352 777.172 220.856C774.868 218.36 773.076 215.352 771.796 211.832C770.516 208.248 769.876 204.184 769.876 199.64V158.264H782.836V200.408C782.836 202.712 783.124 204.824 783.7 206.744C784.276 208.664 785.14 210.328 786.292 211.736C787.444 213.144 788.884 214.264 790.612 215.096C792.34 215.864 794.324 216.248 796.564 216.248C798.868 216.248 800.884 215.864 802.612 215.096C804.34 214.264 805.78 213.144 806.932 211.736C808.084 210.328 808.948 208.664 809.524 206.744C810.1 204.824 810.388 202.712 810.388 200.408V158.264H823.348V199.64C823.348 203.928 822.708 207.864 821.428 211.448C820.212 214.968 818.42 218.008 816.052 220.568C813.748 223.064 810.932 225.016 807.604 226.424C804.34 227.832 800.66 228.536 796.564 228.536ZM850.127 195.032L826.991 158.264H842.447L856.175 181.016H856.943L870.191 158.264H885.839L863.087 195.032V227H850.127V195.032ZM919.792 189.272H953.488C953.68 190.04 953.84 190.968 953.968 192.056C954.096 193.144 954.16 194.232 954.16 195.32C954.16 199.736 953.488 203.896 952.144 207.8C950.8 211.704 948.688 215.192 945.808 218.264C942.736 221.528 939.056 224.056 934.768 225.848C930.48 227.64 925.584 228.536 920.08 228.536C915.088 228.536 910.384 227.64 905.968 225.848C901.552 224.056 897.712 221.56 894.448 218.36C891.184 215.16 888.592 211.384 886.672 207.032C884.752 202.616 883.792 197.816 883.792 192.632C883.792 187.448 884.752 182.68 886.672 178.328C888.592 173.912 891.184 170.104 894.448 166.904C897.712 163.704 901.552 161.208 905.968 159.416C910.384 157.624 915.088 156.728 920.08 156.728C925.648 156.728 930.608 157.688 934.96 159.608C939.376 161.528 943.152 164.184 946.288 167.576L937.36 176.312C935.12 173.944 932.624 172.152 929.872 170.936C927.12 169.656 923.824 169.016 919.984 169.016C916.848 169.016 913.872 169.592 911.056 170.744C908.24 171.832 905.776 173.4 903.664 175.448C901.552 177.496 899.856 179.992 898.576 182.936C897.36 185.816 896.752 189.048 896.752 192.632C896.752 196.216 897.36 199.48 898.576 202.424C899.856 205.304 901.552 207.768 903.664 209.816C905.84 211.864 908.336 213.464 911.152 214.616C913.968 215.704 916.976 216.248 920.176 216.248C923.824 216.248 926.896 215.736 929.392 214.712C931.952 213.624 934.128 212.248 935.92 210.584C937.2 209.432 938.288 207.992 939.184 206.264C940.144 204.472 940.88 202.488 941.392 200.312H919.792V189.272ZM987.143 228.536C983.111 228.536 979.431 227.896 976.103 226.616C972.839 225.272 970.055 223.352 967.751 220.856C965.447 218.36 963.655 215.352 962.375 211.832C961.095 208.248 960.455 204.184 960.455 199.64V158.264H973.415V200.408C973.415 202.712 973.703 204.824 974.279 206.744C974.855 208.664 975.719 210.328 976.871 211.736C978.023 213.144 979.463 214.264 981.191 215.096C982.919 215.864 984.903 216.248 987.143 216.248C989.447 216.248 991.463 215.864 993.191 215.096C994.919 214.264 996.359 213.144 997.511 211.736C998.663 210.328 999.527 208.664 1000.1 206.744C1000.68 204.824 1000.97 202.712 1000.97 200.408V158.264H1013.93V199.64C1013.93 203.928 1013.29 207.864 1012.01 211.448C1010.79 214.968 1009 218.008 1006.63 220.568C1004.33 223.064 1001.51 225.016 998.183 226.424C994.919 227.832 991.239 228.536 987.143 228.536ZM1023.33 158.264H1036.29V214.712H1065.38V227H1023.33V158.264ZM1091.79 158.264H1106.58L1132.4 227H1118.1L1112.43 210.584H1085.94L1080.27 227H1065.97L1091.79 158.264ZM1108.21 198.68L1102.07 181.496L1099.57 173.144H1098.8L1096.31 181.496L1090.16 198.68H1108.21ZM1137.57 158.264H1150.34L1171.36 194.648H1172.13L1193.15 158.264H1206.02V227H1193.15V193.112L1193.92 181.592H1193.15L1175.68 212.408H1167.91L1150.34 181.592H1149.57L1150.34 193.112V227H1137.57V158.264ZM1237.07 158.264H1251.85L1277.67 227H1263.37L1257.71 210.584H1231.21L1225.55 227H1211.24L1237.07 158.264ZM1253.48 198.68L1247.34 181.496L1244.84 173.144H1244.07L1241.58 181.496L1235.43 198.68H1253.48ZM1293 195.032L1269.86 158.264H1285.32L1299.05 181.016H1299.81L1313.06 158.264H1328.71L1305.96 195.032V227H1293V195.032ZM1333.87 158.264H1346.83V227H1333.87V158.264ZM1381.49 173.144C1380.4 173.144 1379.34 172.952 1378.32 172.568C1377.36 172.12 1376.49 171.544 1375.73 170.84C1375.02 170.072 1374.45 169.208 1374 168.248C1373.61 167.288 1373.42 166.232 1373.42 165.08C1373.42 163.928 1373.61 162.872 1374 161.912C1374.45 160.952 1375.02 160.12 1375.73 159.416C1376.49 158.648 1377.36 158.072 1378.32 157.688C1379.34 157.24 1380.4 157.016 1381.49 157.016C1383.73 157.016 1385.65 157.816 1387.25 159.416C1388.85 160.952 1389.65 162.84 1389.65 165.08C1389.65 167.32 1388.85 169.24 1387.25 170.84C1385.65 172.376 1383.73 173.144 1381.49 173.144ZM1375.25 227V179.96H1387.82V227H1375.25ZM1397.98 158.264H1413.05L1440.7 204.344H1441.47L1440.7 191.096V158.264H1453.56V227H1439.93L1410.75 178.328H1409.98L1410.75 191.576V227H1397.98V158.264ZM1464.47 158.264H1487.7C1493.14 158.264 1498.04 159.096 1502.39 160.76C1506.74 162.424 1510.46 164.792 1513.53 167.864C1516.6 170.872 1518.94 174.488 1520.54 178.712C1522.2 182.936 1523.03 187.576 1523.03 192.632C1523.03 197.752 1522.2 202.424 1520.54 206.648C1518.94 210.872 1516.6 214.488 1513.53 217.496C1510.46 220.504 1506.74 222.84 1502.39 224.504C1498.04 226.168 1493.14 227 1487.7 227H1464.47V158.264ZM1487.13 214.712C1490.9 214.712 1494.23 214.2 1497.11 213.176C1499.99 212.088 1502.39 210.584 1504.31 208.664C1506.23 206.744 1507.67 204.44 1508.63 201.752C1509.59 199 1510.07 195.96 1510.07 192.632C1510.07 189.304 1509.59 186.296 1508.63 183.608C1507.67 180.856 1506.23 178.52 1504.31 176.6C1502.39 174.68 1499.99 173.208 1497.11 172.184C1494.23 171.096 1490.9 170.552 1487.13 170.552H1477.43V214.712H1487.13ZM1536.06 173.144C1534.98 173.144 1533.92 172.952 1532.9 172.568C1531.94 172.12 1531.07 171.544 1530.3 170.84C1529.6 170.072 1529.02 169.208 1528.58 168.248C1528.19 167.288 1528 166.232 1528 165.08C1528 163.928 1528.19 162.872 1528.58 161.912C1529.02 160.952 1529.6 160.12 1530.3 159.416C1531.07 158.648 1531.94 158.072 1532.9 157.688C1533.92 157.24 1534.98 157.016 1536.06 157.016C1538.3 157.016 1540.22 157.816 1541.82 159.416C1543.42 160.952 1544.22 162.84 1544.22 165.08C1544.22 167.32 1543.42 169.24 1541.82 170.84C1540.22 172.376 1538.3 173.144 1536.06 173.144ZM1529.82 227V179.96H1542.4V227H1529.82ZM1552.56 158.264H1577.61C1581.07 158.264 1584.2 158.808 1587.02 159.896C1589.84 160.984 1592.24 162.488 1594.22 164.408C1596.27 166.328 1597.84 168.632 1598.92 171.32C1600.01 173.944 1600.56 176.824 1600.56 179.96C1600.56 182.264 1600.17 184.44 1599.4 186.488C1598.64 188.472 1597.58 190.296 1596.24 191.96C1594.89 193.56 1593.32 195 1591.53 196.28C1589.74 197.496 1587.85 198.456 1585.87 199.16L1585.77 199.832L1604.2 226.232V227H1589.32L1571.56 201.176H1565.52V227H1552.56V158.264ZM1577.52 189.272C1580.46 189.272 1582.86 188.376 1584.72 186.584C1586.64 184.792 1587.6 182.52 1587.6 179.768C1587.6 178.552 1587.37 177.368 1586.92 176.216C1586.54 175.064 1585.93 174.04 1585.1 173.144C1584.27 172.248 1583.21 171.544 1581.93 171.032C1580.72 170.456 1579.31 170.168 1577.71 170.168H1565.52V189.272H1577.52Z" fill="white"/>
<path d="M825.196 287.344H858.46L916.564 442H884.38L871.636 405.064H812.02L799.276 442H767.092L825.196 287.344ZM862.132 378.28L848.308 339.616L842.692 320.824H840.964L835.348 339.616L821.524 378.28H862.132ZM951.301 349.984H953.029C956.341 344.656 960.805 340.48 966.421 337.456C972.037 334.288 978.445 332.704 985.645 332.704C992.269 332.704 998.101 333.784 1003.14 335.944C1008.18 338.104 1012.29 341.2 1015.45 345.232C1018.77 349.12 1021.21 353.872 1022.8 359.488C1024.53 364.96 1025.39 371.08 1025.39 377.848V442H997.093V381.304C997.093 373.672 995.365 368.056 991.909 364.456C988.597 360.712 983.701 358.84 977.221 358.84C973.333 358.84 969.877 359.704 966.853 361.432C963.973 363.016 961.453 365.248 959.293 368.128C957.277 370.864 955.693 374.176 954.541 378.064C953.533 381.808 953.029 385.84 953.029 390.16V442H924.733V336.16H951.301V349.984ZM1121.12 429.256H1119.4C1116.8 433.72 1112.77 437.536 1107.3 440.704C1101.83 443.872 1095.06 445.456 1087 445.456C1080.23 445.456 1073.75 444.088 1067.56 441.352C1061.51 438.472 1056.11 434.584 1051.36 429.688C1046.75 424.648 1043.08 418.672 1040.34 411.76C1037.6 404.848 1036.24 397.288 1036.24 389.08C1036.24 380.872 1037.6 373.312 1040.34 366.4C1043.08 359.488 1046.75 353.584 1051.36 348.688C1056.11 343.648 1061.51 339.76 1067.56 337.024C1073.75 334.144 1080.23 332.704 1087 332.704C1095.06 332.704 1101.83 334.288 1107.3 337.456C1112.77 340.624 1116.8 344.44 1119.4 348.904H1121.12L1119.4 333.784V287.344H1147.69V442H1121.12V429.256ZM1092.83 419.32C1096.57 419.32 1100.1 418.672 1103.41 417.376C1106.87 415.936 1109.89 413.92 1112.48 411.328C1115.08 408.736 1117.16 405.568 1118.75 401.824C1120.33 398.08 1121.12 393.832 1121.12 389.08C1121.12 384.328 1120.33 380.08 1118.75 376.336C1117.16 372.592 1115.08 369.424 1112.48 366.832C1109.89 364.24 1106.87 362.296 1103.41 361C1100.1 359.56 1096.57 358.84 1092.83 358.84C1089.08 358.84 1085.48 359.56 1082.03 361C1078.72 362.44 1075.76 364.456 1073.17 367.048C1070.58 369.64 1068.49 372.808 1066.91 376.552C1065.32 380.296 1064.53 384.472 1064.53 389.08C1064.53 393.688 1065.32 397.864 1066.91 401.608C1068.49 405.352 1070.58 408.52 1073.17 411.112C1075.76 413.704 1078.72 415.72 1082.03 417.16C1085.48 418.6 1089.08 419.32 1092.83 419.32ZM1165.32 336.16H1191.89V350.848H1193.62C1194.91 348.256 1196.64 345.88 1198.8 343.72C1200.96 341.56 1203.34 339.688 1205.93 338.104C1208.66 336.52 1211.54 335.296 1214.57 334.432C1217.74 333.568 1220.83 333.136 1223.86 333.136C1227.6 333.136 1230.77 333.496 1233.36 334.216C1236.1 334.936 1238.4 335.872 1240.27 337.024L1232.71 362.728C1230.98 361.864 1229.04 361.216 1226.88 360.784C1224.86 360.208 1222.34 359.92 1219.32 359.92C1215.43 359.92 1211.9 360.712 1208.74 362.296C1205.57 363.736 1202.83 365.824 1200.53 368.56C1198.37 371.296 1196.64 374.536 1195.34 378.28C1194.19 381.88 1193.62 385.84 1193.62 390.16V442H1165.32V336.16ZM1290.37 332.704C1298.58 332.704 1306.07 334.144 1312.84 337.024C1319.75 339.76 1325.65 343.648 1330.55 348.688C1335.59 353.584 1339.48 359.488 1342.21 366.4C1345.09 373.312 1346.53 380.872 1346.53 389.08C1346.53 397.288 1345.09 404.848 1342.21 411.76C1339.48 418.672 1335.59 424.648 1330.55 429.688C1325.65 434.584 1319.75 438.472 1312.84 441.352C1306.07 444.088 1298.58 445.456 1290.37 445.456C1282.17 445.456 1274.61 444.088 1267.69 441.352C1260.93 438.472 1255.02 434.584 1249.98 429.688C1245.09 424.648 1241.2 418.672 1238.32 411.76C1235.58 404.848 1234.21 397.288 1234.21 389.08C1234.21 380.872 1235.58 373.312 1238.32 366.4C1241.2 359.488 1245.09 353.584 1249.98 348.688C1255.02 343.648 1260.93 339.76 1267.69 337.024C1274.61 334.144 1282.17 332.704 1290.37 332.704ZM1290.37 419.32C1293.97 419.32 1297.43 418.672 1300.74 417.376C1304.2 415.936 1307.22 413.92 1309.81 411.328C1312.41 408.736 1314.42 405.568 1315.86 401.824C1317.45 398.08 1318.24 393.832 1318.24 389.08C1318.24 384.328 1317.45 380.08 1315.86 376.336C1314.42 372.592 1312.41 369.424 1309.81 366.832C1307.22 364.24 1304.2 362.296 1300.74 361C1297.43 359.56 1293.97 358.84 1290.37 358.84C1286.63 358.84 1283.1 359.56 1279.79 361C1276.48 362.296 1273.53 364.24 1270.93 366.832C1268.34 369.424 1266.25 372.592 1264.67 376.336C1263.23 380.08 1262.51 384.328 1262.51 389.08C1262.51 393.832 1263.23 398.08 1264.67 401.824C1266.25 405.568 1268.34 408.736 1270.93 411.328C1273.53 413.92 1276.48 415.936 1279.79 417.376C1283.1 418.672 1286.63 419.32 1290.37 419.32ZM1371.89 320.824C1369.45 320.824 1367.07 320.392 1364.77 319.528C1362.61 318.52 1360.66 317.224 1358.93 315.64C1357.35 313.912 1356.05 311.968 1355.05 309.808C1354.18 307.648 1353.75 305.272 1353.75 302.68C1353.75 300.088 1354.18 297.712 1355.05 295.552C1356.05 293.392 1357.35 291.52 1358.93 289.936C1360.66 288.208 1362.61 286.912 1364.77 286.048C1367.07 285.04 1369.45 284.536 1371.89 284.536C1376.93 284.536 1381.25 286.336 1384.85 289.936C1388.45 293.392 1390.25 297.64 1390.25 302.68C1390.25 307.72 1388.45 312.04 1384.85 315.64C1381.25 319.096 1376.93 320.824 1371.89 320.824ZM1357.85 442V336.16H1386.15V442H1357.85ZM1483.33 429.256H1481.6C1479.01 433.72 1474.98 437.536 1469.51 440.704C1464.03 443.872 1457.27 445.456 1449.2 445.456C1442.43 445.456 1435.95 444.088 1429.76 441.352C1423.71 438.472 1418.31 434.584 1413.56 429.688C1408.95 424.648 1405.28 418.672 1402.55 411.76C1399.81 404.848 1398.44 397.288 1398.44 389.08C1398.44 380.872 1399.81 373.312 1402.55 366.4C1405.28 359.488 1408.95 353.584 1413.56 348.688C1418.31 343.648 1423.71 339.76 1429.76 337.024C1435.95 334.144 1442.43 332.704 1449.2 332.704C1457.27 332.704 1464.03 334.288 1469.51 337.456C1474.98 340.624 1479.01 344.44 1481.6 348.904H1483.33L1481.6 333.784V287.344H1509.9V442H1483.33V429.256ZM1455.03 419.32C1458.78 419.32 1462.31 418.672 1465.62 417.376C1469.07 415.936 1472.1 413.92 1474.69 411.328C1477.28 408.736 1479.37 405.568 1480.95 401.824C1482.54 398.08 1483.33 393.832 1483.33 389.08C1483.33 384.328 1482.54 380.08 1480.95 376.336C1479.37 372.592 1477.28 369.424 1474.69 366.832C1472.1 364.24 1469.07 362.296 1465.62 361C1462.31 359.56 1458.78 358.84 1455.03 358.84C1451.29 358.84 1447.69 359.56 1444.23 361C1440.92 362.44 1437.97 364.456 1435.38 367.048C1432.79 369.64 1430.7 372.808 1429.11 376.552C1427.53 380.296 1426.74 384.472 1426.74 389.08C1426.74 393.688 1427.53 397.864 1429.11 401.608C1430.7 405.352 1432.79 408.52 1435.38 411.112C1437.97 413.704 1440.92 415.72 1444.23 417.16C1447.69 418.6 1451.29 419.32 1455.03 419.32Z" fill="white"/>
</svg>
